<?xml version="1.0" encoding="UTF-8"?>
<svg width="229px" height="33px" viewBox="0 0 229 33" version="1.1" xmlns="http://www.w3.org/2000/svg" xmlns:xlink="http://www.w3.org/1999/xlink">
    <!-- Generator: Sketch 46.1 (44463) - http://www.bohemiancoding.com/sketch -->
    <title>Artboard</title>
    <desc>Created with Sketch.</desc>
    <defs>
        <polygon id="path-1" points="0 32.1617886 228.96795 32.1617886 228.96795 0 0 0"></polygon>
    </defs>
    <g id="assets" stroke="none" stroke-width="1" fill="none" fill-rule="evenodd">
        <g id="Artboard">
            <g id="Logo">
                <path d="M52.7415004,25.4978862 C56.0923681,25.4978862 58.8185739,22.7317073 58.8185739,19.3317073 C58.8185739,15.9317073 56.0923681,13.1656911 52.7415004,13.1656911 C49.3906326,13.1656911 46.6645871,15.9317073 46.6645871,19.3317073 C46.6645871,22.7317073 49.3906326,25.4978862 52.7415004,25.4978862 Z M52.7415004,6.43902439 C59.7589321,6.43902439 65.4480357,12.2115447 65.4480357,19.3317073 C65.4480357,26.4520325 59.7589321,32.2245528 52.7415004,32.2245528 C45.7240686,32.2245528 40.034965,26.4520325 40.034965,19.3317073 C40.034965,12.2115447 45.7240686,6.43902439 52.7415004,6.43902439 Z" id="Fill-1" fill="#FFFFFF"></path>
                <polygon id="Fill-3" fill="#FFFFFF" points="97.1096674 22.555122 91.5122279 7.24390244 83.923498 7.24390244 78.3262188 22.555122 72.7281383 7.24390244 65.6573427 7.24390244 74.6747184 31.9082927 81.9775589 31.9082927 87.7179431 16.2068293 93.4583273 31.9082927 100.761007 31.9082927 109.778383 7.24390244 102.707588 7.24390244"></polygon>
                <mask id="mask-2" fill="white">
                    <use xlink:href="#path-1"></use>
                </mask>
                <g id="Clip-6"></g>
                <polygon id="Fill-5" fill="#FFFFFF" mask="url(#mask-2)" points="29.6258741 31.5630894 36.255336 31.5630894 36.255336 0 29.6258741 0"></polygon>
                <polygon id="Fill-7" fill="#FFFFFF" mask="url(#mask-2)" points="138.520979 31.5630894 145.150441 31.5630894 145.150441 0 138.520979 0"></polygon>
                <polygon id="Fill-8" fill="#FFFFFF" mask="url(#mask-2)" points="9.60839161 6.57284553 25.1874427 6.57284553 25.1874427 0"></polygon>
                <polygon id="Fill-9" fill="#FFFFFF" mask="url(#mask-2)" points="15.5790511 9.51154472 9.13339818 6.43918699 9.13291742 6.43902439 9.13291742 14.6530081 0 14.6530081 0 21.1941463 9.13291742 21.1941463 9.13291742 31.5001626 15.5790511 31.5001626 15.5790511 21.1941463 24.7118083 21.1941463 24.7118083 14.6530081 15.5790511 14.6530081"></polygon>
                <path d="M161.636285,25.4982114 C158.285577,25.4982114 155.559211,22.7318699 155.559211,19.3320325 C155.559211,15.9321951 158.285577,13.1658537 161.636285,13.1658537 C164.986992,13.1658537 167.713358,15.9321951 167.713358,19.3320325 C167.713358,22.7318699 164.986992,25.4982114 161.636285,25.4982114 L161.636285,25.4982114 Z M167.713358,7.03495935 L167.713358,8.53788618 C165.652358,7.0001626 163.837665,6.43902439 161.636285,6.43902439 C154.618853,6.43902439 148.93007,12.2117073 148.93007,19.3320325 C148.93007,26.4523577 154.618853,32.2245528 161.636285,32.2245528 C162.51126,32.2245528 163.408992,32.137561 164.271147,31.9543089 C165.417108,31.6377236 166.52509,31.0837398 167.713358,30.196748 L167.713358,30.3752846 L167.713358,31.6995122 L174.34298,31.6995122 L174.34298,7.03495935 L167.713358,7.03495935 Z" id="Fill-10" fill="#FFFFFF" mask="url(#mask-2)"></path>
                <polygon id="Fill-11" fill="#FFFFFF" mask="url(#mask-2)" points="194.111439 16.4598374 203.523516 6.9097561 194.148137 6.9097561 186.786965 14.3793496 186.786965 0 180.157343 0 180.157343 31.5741463 186.786965 31.5741463 186.786965 23.8913821 189.35404 21.2869919 196.494866 31.5741463 204.603934 31.5741463"></polygon>
                <polygon id="Fill-12" fill="#FFFFFF" mask="url(#mask-2)" points="118.503497 6.57284553 134.082708 6.57284553 134.082708 0"></polygon>
                <polygon id="Fill-13" fill="#FFFFFF" mask="url(#mask-2)" points="124.474156 9.51154472 118.028503 6.43918699 118.027862 6.43902439 118.027862 14.6530081 108.895105 14.6530081 108.895105 21.1941463 118.027862 21.1941463 118.027862 31.5001626 124.474156 31.5001626 124.474156 21.1941463 133.606913 21.1941463 133.606913 14.6530081 124.474156 14.6530081"></polygon>
                <path d="M210.872686,17.0928455 C211.399594,14.3834146 213.998239,12.400813 216.754732,12.3985366 C216.756495,12.3985366 216.758098,12.3982114 216.759861,12.3982114 C216.759861,12.3982114 216.760021,12.398374 216.760181,12.398374 C216.760341,12.398374 216.760502,12.3982114 216.760662,12.3982114 C216.762425,12.3982114 216.764027,12.3985366 216.76563,12.3985366 C219.522443,12.400813 222.0775,14.3834146 222.604569,17.0928455 L210.872686,17.0928455 Z M228.965769,19.3320325 C228.965769,18.5678049 228.89654,17.8206504 228.770903,17.0928455 C227.725579,11.0404878 223.148784,6.43902439 216.884697,6.43902439 C209.867265,6.43902439 204.178322,12.2117073 204.178322,19.3320325 C204.178322,26.4523577 209.867265,32.224878 216.884697,32.224878 C221.576072,32.224878 225.665701,29.64 227.865479,25.801626 L221.949779,23.3056911 C220.778017,24.844065 218.945216,25.837561 216.884697,25.837561 C213.781418,25.837561 211.260495,23.8198374 210.886307,21.6089431 L228.764172,21.6089431 C228.893976,20.8695935 228.965769,20.1095935 228.965769,19.3320325 L228.965769,19.3320325 Z" id="Fill-14" fill="#FFFFFF" mask="url(#mask-2)"></path>
            </g>
        </g>
    </g>
</svg>