<?xml version="1.0" encoding="UTF-8"?>
<svg width="71px" height="71px" viewBox="0 0 71 71" version="1.1" xmlns="http://www.w3.org/2000/svg" xmlns:xlink="http://www.w3.org/1999/xlink">
    <!-- Generator: Sketch 46.1 (44463) - http://www.bohemiancoding.com/sketch -->
    <title>btn/xing</title>
    <desc>Created with Sketch.</desc>
    <defs></defs>
    <g id="Page-1" stroke="none" stroke-width="1" fill="none" fill-rule="evenodd">
        <g id="001_Layout.Website" transform="translate(-2222.000000, -10909.000000)">
            <g id="footer" transform="translate(0.000000, 10809.000000)">
                <g id="btn/xing" transform="translate(2223.000000, 101.000000)">
                    <circle id="Oval-Copy" stroke="#FFFFFF" stroke-width="2" cx="34.5" cy="34.5" r="34.5"></circle>
                    <g id="Xing-Square---FontAwesome---group" transform="translate(16.848837, 14.441860)" fill="#FFFFFF">
                        <path d="M15.5830517,16.8592365 C15.5830517,16.8592365 15.3573973,17.2767032 9.16802117,28.1629503 C8.87789416,28.7088683 8.42658548,29.3190119 7.55620446,29.3190119 L1.59248265,29.3190119 C1.23788298,29.3190119 0.979992304,29.1584478 0.818810634,28.9015452 C0.657628963,28.6446426 0.625392629,28.3235144 0.818810634,28.0023862 L7.13713212,16.8913493 L7.13713212,16.8592365 L3.10759036,9.92286667 C2.94640868,9.60173844 2.91417235,9.24849738 3.07535402,8.9915948 C3.23653569,8.76680504 3.5266627,8.63835374 3.91349871,8.63835374 L9.84498418,8.63835374 C10.7476015,8.63835374 11.1989102,9.21638456 11.5212736,9.73018973 C15.5830517,16.8271237 15.5830517,16.8592365 15.5830517,16.8592365 Z M35.6985241,0.899163339 C35.8597058,1.15606592 35.8597058,1.47719416 35.6985241,1.79832239 L22.5138635,25.0158936 L22.5138635,25.0480064 L30.8953104,40.3337103 C31.0887284,40.6548385 31.0887284,40.9759668 30.9275467,41.2328693 C30.766365,41.4897719 30.476238,41.6182232 30.1216383,41.6182232 L24.1901529,41.6182232 C23.2552992,41.6182232 22.8039905,41.0080796 22.5138635,40.4942744 C14.067944,25.0801192 14.067944,25.0480064 14.067944,25.0480064 C14.067944,25.0480064 14.4870163,24.3094115 27.3170773,1.63775827 C27.6394406,1.05972745 28.0262766,0.51380946 28.8966576,0.51380946 L34.9248521,0.51380946 C35.2794518,0.51380946 35.5373425,0.642260753 35.6985241,0.899163339 Z" id="Xing-Square---FontAwesome"></path>
                    </g>
                </g>
            </g>
        </g>
    </g>
</svg>